<svg id="Layer_1" data-name="Layer 1" xmlns="http://www.w3.org/2000/svg" viewBox="0 0 400 300" width="406" height="306" class="illustration"><title>_</title><path d="M293.45,59.85c33.73,9.61,59.78,37,66.38,71.35,5.56,29-4.16,64.66-59.78,81.51C243.28,229.9,84.77,238.88,55.59,192S33,84.81,93.51,63.11C136,47.89,227.57,41.08,293.45,59.85Z" fill="#e6e6e6" opacity="0.3"></path><rect x="236.36" y="50.15" width="60.96" height="41.89" fill="#c9c9c9"></rect><rect x="239.85" y="54.25" width="53.98" height="33.7" fill="#e6e6e6"></rect><path d="M259.69,107.1a73.5,73.5,0,0,0-7.05,22.49,13.29,13.29,0,0,1-9.35,10.74l-20.74,6.09,1.63,5.44,17.72-2.12c15.13-1.8,28-12.47,31.81-27.21,1.3-5,1.53-10.06-.28-14.75A7.57,7.57,0,0,0,259.69,107.1Z" fill="#68e1fd"></path><path d="M259.69,107.1a73.5,73.5,0,0,0-7.05,22.49,13.29,13.29,0,0,1-9.35,10.74l-20.74,6.09,1.63,5.44,17.72-2.12c15.13-1.8,28-12.47,31.81-27.21,1.3-5,1.53-10.06-.28-14.75A7.57,7.57,0,0,0,259.69,107.1Z" opacity="0.08"></path><path d="M277.13,80.54a23.7,23.7,0,0,0-.42,6.35,1.93,1.93,0,0,0,2.18,1.65,4.25,4.25,0,0,0,3.67-2.81l1.52-3.19A3.45,3.45,0,0,0,283,78.71C281,76.92,277.48,78.22,277.13,80.54Z" fill="#f4a28c"></path><polygon points="283.81 83.12 284.36 95.67 277.42 95.48 279.8 86.42 283.81 83.12" fill="#f4a28c"></polygon><path d="M280.8,84.26s.2-1.46,1.29-1.23.82,2.36-.7,2.39Z" fill="#f4a28c"></path><path d="M276.77,82.93l-1.23,1.35a.61.61,0,0,0,.27,1l1.43.44Z" fill="#f4a28c"></path><path d="M279.2,88.39a4.6,4.6,0,0,0,2.38-1.08,7.2,7.2,0,0,1-3.13,4.24Z" fill="#ce8172" opacity="0.31"></path><path d="M283.89,85.08,285.23,80s2.19-1.4.6-3-2.88-.31-4.18-2.61a2.28,2.28,0,0,0-4.25.17c-.5,1.54-4,1-3.3,3.29s3.86,2.36,4.76,2.38C282.79,80.28,279.41,85.51,283.89,85.08Z" fill="#ffd200"></path><path d="M283.25,95.37l-1.4-.25a20.85,20.85,0,0,0-18,5.13,20.29,20.29,0,0,0-4.77,6.84c-4.9,11.42,9.55,50.89,9.55,50.89l28.26-.41S316,98.8,283.25,95.37Z" fill="#68e1fd"></path><path d="M274,105.93a22.36,22.36,0,0,0,10.27,18.88c11,7.23-1.53,33.17-1.53,33.17l14.18-.41s4.88-16.63,5.14-25.47S298.45,105.62,274,105.93Z" opacity="0.08"></path><path d="M286.84,96a11.4,11.4,0,0,0-7.35.73c-2.62,1.26-5.29,3.85-5.48,9.23-.39,10.74,39.19,4,29.87,61l6.26,1.56S331.23,105.84,286.84,96Z" fill="#68e1fd"></path><path d="M286.84,96a11.4,11.4,0,0,0-7.35.73c-2.62,1.26-5.29,3.85-5.48,9.23-.39,10.74,39.19,4,29.87,61l6.26,1.56S331.23,105.84,286.84,96Z" fill="#fff" opacity="0.46"></path><path d="M222.81,147.29s-4.15.49-5.54,3.17,6.67.61,6.67.61Z" fill="#f4a28c"></path><ellipse cx="197.54" cy="241.57" rx="155.13" ry="9.97" fill="#e6e6e6" opacity="0.45"></ellipse><path d="M191.33,93.6s-12.39-2.2-14.63,9.82,4.65,40.21-20.18,40c-3.38,0-6.17-.07-8.5-.11-.28,1.47-.55,2.95-.78,4.44s-.38,3.09-.49,4.66c13.48,3.13,36.51,5.48,42.22-12.9C197.17,113.11,191.33,93.6,191.33,93.6Z" fill="#68e1fd"></path><path d="M191.33,93.6s-12.39-2.2-14.63,9.82,4.65,40.21-20.18,40c-3.38,0-6.17-.07-8.5-.11-.28,1.47-.55,2.95-.78,4.44s-.38,3.09-.49,4.66c13.48,3.13,36.51,5.48,42.22-12.9C197.17,113.11,191.33,93.6,191.33,93.6Z" fill="#fff" opacity="0.46"></path><polygon points="183.96 180.3 205.11 219.35 208.02 218.67 195.33 177.64 183.96 180.3" fill="#f4a28c"></polygon><path d="M204.85,218.75s-.51,2.64-2.45,3.53-.84,3.72,2.07,1.86A18.64,18.64,0,0,0,207,222.2a5.59,5.59,0,0,1,2.62-1.24.92.92,0,0,0,.68-.8c.34-1.46-3-2.7-3-2.7Z" fill="#68e1fd"></path><polygon points="180.1 176.57 176.7 220.84 179.52 221.85 191.1 180.5 180.1 176.57" fill="#f4a28c"></polygon><path d="M176.81,220.2s-1.86,2-4,1.64-2.71,2.67.74,2.68a18.24,18.24,0,0,0,3.2-.24,5.56,5.56,0,0,1,2.87.38.93.93,0,0,0,1-.3c1.08-1.05-1.05-3.9-1.05-3.9Z" fill="#68e1fd"></path><path d="M196.4,72.27s4.59-3.88,8.19-1.17,1.16,13.66,9,11.14c0,0-8.53,7.07-14.49-4.48Z" fill="#ffd200"></path><path d="M200.06,79.78s3.11-.44,1.83-4.69-4.81-4.09-5.82-3Z" fill="#24285b"></path><polygon points="178.65 149.54 171.1 212.62 190.72 212.62 192.35 155.85 178.65 149.54" fill="#24285b"></polygon><polygon points="178.65 149.54 171.1 212.62 190.72 212.62 192.35 155.85 178.65 149.54" opacity="0.08"></polygon><path d="M190.75,77.48a23.37,23.37,0,0,0,1.46,6,1.86,1.86,0,0,0,2.49.89,4.11,4.11,0,0,0,2.58-3.65l.48-3.39a3.36,3.36,0,0,0-2.12-3.23C193.3,73,190.41,75.24,190.75,77.48Z" fill="#f4a28c"></path><polygon points="198.52 79.21 200.94 91.14 194.27 92 195.16 83.2 198.52 79.21" fill="#f4a28c"></polygon><path d="M191.11,79.79l-.74,1.6a.59.59,0,0,0,.54.85h1.44Z" fill="#f4a28c"></path><path d="M195.14,83.45a4.53,4.53,0,0,0,2-1.32s.77,2.55-2.3,3.84Z" fill="#ce8172" opacity="0.31"></path><path d="M198.27,79.27s-.24-1.41.84-1.51,1.43,1.94,0,2.41Z" fill="#f4a28c"></path><path d="M191.48,77.16a10.55,10.55,0,0,0,3.55-.41s1.22,4,4.58,4.67c0,0,2.39-6.47-1.66-8.41-3.39-1.62-5.95-3.12-8.29-.46A2.79,2.79,0,0,0,191.48,77.16Z" fill="#ffd200"></path><path d="M202.69,91.92s20.11,2.17,20.9,13.74-13.4,43.89-13.4,43.89H178.65l-3-17.7a36.08,36.08,0,0,0-4.15-11.59c-2.42-4.36-4.52-11.6,2.17-18.53a21.36,21.36,0,0,1,7.9-5.07l11.79-4.4Z" fill="#68e1fd"></path><path d="M195.21,78.91s0-1.65,1.31-1.55,1.54,2,0,3Z" fill="#f4a28c"></path><path d="M203.55,91.66s.92-2.88-4.4-3.48-9.57,1.66-7.82,5.42C191.33,93.6,195.34,96.8,203.55,91.66Z" fill="#68e1fd"></path><path d="M203.55,91.66s.92-2.88-4.4-3.48-9.57,1.66-7.82,5.42C191.33,93.6,195.34,96.8,203.55,91.66Z" fill="#fff" opacity="0.46"></path><path d="M210.19,149.55l-4.62,15.15a48.92,48.92,0,0,0,.55,30.22l4.07,11.79-19.47,5.91L186,193.23a46.27,46.27,0,0,1,.6-24.13l.08-.28A16.48,16.48,0,0,0,179.46,150l-.81-.49Z" fill="#24285b"></path><path d="M205,102.18s-4.93,7.88,0,18.55c1.92,4.17,3.88,10-1.08,12.79-6.66,3.75-14.69-.83-20.58,4.74a12.18,12.18,0,0,0-3.77,8.56c-.07,3.84,3.81,2.73,6.62,2.73h10.46c.95,0,13.38.55,13.54,0l.58-2.12,6.65-12.17,3.06-15.38Z" opacity="0.08"></path><path d="M205,107a8.72,8.72,0,0,1,13.22-9.53c7.88,5.23,19,16.14,14.42,34.22-6.9,27-28.1,18.11-43.64,7.89l2.44-4.14s22.79,6.94,25.32-5.19a10,10,0,0,0-2.63-8.79C211.22,118.33,206.53,112.66,205,107Z" fill="#68e1fd"></path><path d="M205,107a8.72,8.72,0,0,1,13.22-9.53c7.88,5.23,19,16.14,14.42,34.22-6.9,27-28.1,18.11-43.64,7.89l2.44-4.14s22.79,6.94,25.32-5.19a10,10,0,0,0-2.63-8.79C211.22,118.33,206.53,112.66,205,107Z" fill="#fff" opacity="0.46"></path><path d="M191.41,135.39s-6.71-3.92-9.27,0,6.83,4.14,6.83,4.14Z" fill="#f4a28c"></path><rect x="90.77" y="148.16" width="236.04" height="18.32" fill="#e6e6e6"></rect><rect x="102.63" y="166.48" width="209.64" height="71.63" fill="#c9c9c9"></rect><rect x="106.32" y="50.15" width="60.96" height="41.89" fill="#c9c9c9"></rect><rect x="142.45" y="124.01" width="42.67" height="24.15" fill="#c9c9c9"></rect><rect x="145.16" y="125.99" width="37.86" height="20.19" fill="#e6e6e6"></rect><rect x="236.77" y="124.01" width="42.67" height="24.15" fill="#c9c9c9"></rect><rect x="239.47" y="125.99" width="37.86" height="20.19" fill="#e6e6e6"></rect><path d="M77.06,123.82s-35.69,25.37-16.38,69.05H66s-2.79-31.69,11.06-46.69S77.06,123.82,77.06,123.82Z" fill="#68e1fd"></path><path d="M77.06,123.82s-35.69,25.37-16.38,69.05H66s-2.79-31.69,11.06-46.69S77.06,123.82,77.06,123.82Z" fill="#fff" opacity="0.2"></path><polygon points="86.8 110.13 89.83 119.24 82.62 123.82 80.03 108.03 86.8 110.13" fill="#f4a28c"></polygon><path d="M77.55,99.22a5.68,5.68,0,0,1,9.39-1.58c3.07,3.28,6.77,8.49,2.58,11.33-6.4,4.34-12.29-3.77-12.29-3.77A10.34,10.34,0,0,1,77.55,99.22Z" fill="#f4a28c"></path><path d="M82.24,104.81s-1.65-1.37-2.39.58,2.16,2.89,3,1.9S82.24,104.81,82.24,104.81Z" fill="#f4a28c"></path><path d="M74.2,128.29A18.44,18.44,0,0,1,85.77,118.2c9.79-2.94,27.84.28,33.34,9.44,7.53,12.55-3.49,52.41-3.49,52.41l-32.93,2.56S64.57,149.94,74.2,128.29Z" fill="#68e1fd"></path><polygon points="115.62 180.06 111.28 236.67 104.44 236.67 98.32 192.68 83.18 182.61 115.62 180.06" fill="#24285b"></polygon><polygon points="83.18 182.61 73.73 236.67 81.07 236.67 96.93 191.76 83.18 182.61" fill="#24285b"></polygon><path d="M88.61,117.34s-15.4,49.61,29.08,52.9l-2.07,9.81-32.93,2.56A85.48,85.48,0,0,1,71.57,138.8s.28-12.65,9.19-18.25A20.09,20.09,0,0,1,88.61,117.34Z" opacity="0.08"></path><path d="M75.45,236.55,71,239.81a1,1,0,0,0,.58,1.76H79a1,1,0,0,0,1-1v-4Z" fill="#68e1fd"></path><path d="M110.43,236.55l4.16,3.26a1,1,0,0,1-.61,1.76h-5.27a2.82,2.82,0,0,1-2.82-2.82v-2.2Z" fill="#68e1fd"></path><path d="M61.52,192.87s.72,10.62,5.76,7.87S66,192.87,66,192.87Z" fill="#f4a28c"></path><path d="M77.79,107.69s2,3.7,5.42,2.56,1-9.14,1-9.14,4.09-5.9,3.5-10.57c-.32-2.56-3.8-3-5-.65a4.63,4.63,0,0,1-3.93,2.42C73,93,67.72,102,77.79,107.69Z" fill="#24285b"></path><path d="M101.12,132a8.57,8.57,0,0,1,12-11c5.37,3,10.78,8.4,12.9,17.89,4.79,21.47,6.11,47.5,6.11,47.5l-5.51.6s-6.07-26.75-16.43-41.3C107.73,142.2,103.26,136.72,101.12,132Z" fill="#68e1fd"></path><path d="M101.12,132a8.57,8.57,0,0,1,12-11c5.37,3,10.78,8.4,12.9,17.89,4.79,21.47,6.11,47.5,6.11,47.5l-5.51.6s-6.07-26.75-16.43-41.3C107.73,142.2,103.26,136.72,101.12,132Z" fill="#fff" opacity="0.2"></path><path d="M127.74,186.86s-2.86,7.85.75,8.28c4.71.56,3.67-8.76,3.67-8.76Z" fill="#f4a28c"></path><path d="M329.47,228.55s-7.82-2.14-9.53-9.42c0,0,12.12-2.45,12.47,10.06Z" fill="#68e1fd" opacity="0.58"></path><path d="M330.43,227.77s-5.47-8.64-.66-16.71c0,0,9.22,5.85,5.12,16.73Z" fill="#68e1fd" opacity="0.73"></path><path d="M331.84,227.78s2.88-9.12,11.61-10.85c0,0,1.64,5.92-5.65,10.87Z" fill="#68e1fd"></path><polygon points="326.16 227.57 327.75 238.42 337.74 238.47 339.21 227.63 326.16 227.57" fill="#24285b"></polygon><rect x="109.8" y="54.25" width="53.98" height="33.7" fill="#e6e6e6"></rect></svg>