<svg id="Layer_1" data-name="Layer 1" xmlns="http://www.w3.org/2000/svg" xmlns:xlink="http://www.w3.org/1999/xlink" viewBox="0 0 344.19 301.59" width="406" height="306" class="illustration"><defs><linearGradient id="linear-gradient" x1="176.26" y1="146.22" x2="175.88" y2="294.51" gradientUnits="userSpaceOnUse"><stop offset="0.01"></stop><stop offset="0.13" stop-opacity="0.69"></stop><stop offset="1" stop-opacity="0"></stop></linearGradient><linearGradient id="linear-gradient-2" x1="177.2" y1="138.33" x2="176.82" y2="286.62" xlink:href="#linear-gradient"></linearGradient><linearGradient id="linear-gradient-3" x1="221.7" y1="30.52" x2="229.02" y2="253.52" xlink:href="#linear-gradient"></linearGradient><linearGradient id="linear-gradient-4" x1="230.83" y1="132.91" x2="182.4" y2="298.09" xlink:href="#linear-gradient"></linearGradient><linearGradient id="linear-gradient-5" x1="146.86" y1="173.56" x2="288.68" y2="173.56" gradientUnits="userSpaceOnUse"><stop offset="0.01" stop-color="#fff"></stop><stop offset="0.13" stop-color="#fff" stop-opacity="0.69"></stop><stop offset="1" stop-color="#68e1fd" stop-opacity="0"></stop></linearGradient><linearGradient id="linear-gradient-6" x1="230.83" y1="114.32" x2="182.4" y2="279.51" xlink:href="#linear-gradient"></linearGradient><linearGradient id="linear-gradient-7" x1="146.86" y1="154.98" x2="288.68" y2="154.98" xlink:href="#linear-gradient-5"></linearGradient><linearGradient id="linear-gradient-8" x1="263.57" y1="98.25" x2="215.14" y2="263.43" gradientTransform="translate(-42.21 14.62) rotate(-4.01)" xlink:href="#linear-gradient"></linearGradient><linearGradient id="linear-gradient-9" x1="179.6" y1="138.91" x2="321.42" y2="138.91" gradientTransform="translate(-42.21 14.62) rotate(-4.01)" xlink:href="#linear-gradient-5"></linearGradient><linearGradient id="linear-gradient-10" x1="174.39" y1="138.15" x2="194.47" y2="178.5" xlink:href="#linear-gradient"></linearGradient><linearGradient id="linear-gradient-11" x1="186.08" y1="20.74" x2="214.24" y2="166.03" xlink:href="#linear-gradient"></linearGradient><linearGradient id="linear-gradient-12" x1="131.52" y1="155.8" x2="204.73" y2="154.12" xlink:href="#linear-gradient-5"></linearGradient><linearGradient id="linear-gradient-13" x1="212.77" y1="140.26" x2="196.81" y2="109.48" gradientUnits="userSpaceOnUse"><stop offset="0.01"></stop><stop offset="0.13" stop-opacity="0.69"></stop><stop offset="0.36" stop-opacity="0.44"></stop><stop offset="1" stop-opacity="0"></stop></linearGradient><linearGradient id="linear-gradient-14" x1="228.53" y1="150.63" x2="212.58" y2="119.85" xlink:href="#linear-gradient-13"></linearGradient><linearGradient id="linear-gradient-15" x1="201.02" y1="96.75" x2="242.23" y2="96.75" xlink:href="#linear-gradient"></linearGradient><linearGradient id="linear-gradient-16" x1="229.28" y1="76.92" x2="251.67" y2="76.92" xlink:href="#linear-gradient"></linearGradient><linearGradient id="linear-gradient-17" x1="181.94" y1="232.82" x2="160.55" y2="206.64" xlink:href="#linear-gradient"></linearGradient><linearGradient id="linear-gradient-18" x1="292.5" y1="234.56" x2="271.1" y2="208.38" xlink:href="#linear-gradient"></linearGradient><linearGradient id="linear-gradient-19" x1="256.61" y1="116.72" x2="248.73" y2="197.06" xlink:href="#linear-gradient-5"></linearGradient><linearGradient id="linear-gradient-20" x1="201.01" y1="128.58" x2="214.8" y2="179.26" xlink:href="#linear-gradient-5"></linearGradient></defs><title>1</title><path d="M197.12,16.71A168.33,168.33,0,0,0,98.17,83.39c-9,12.8-16.2,26.93-26.87,38.34-6.39,6.84-14,12.67-19.09,20.5-7.61,11.68-8.8,26.39-8.18,40.31,1.54,34.75,13.51,69.69,37.1,95.26s59.42,40.62,93.8,35.35c23-3.53,43.94-15.5,66.62-20.91,17.72-4.23,36.31-4.35,54.28-1.38,18.88,3.12,38.55,9.55,56.6,3.21,21.3-7.49,33.22-31,35.23-53.49s-3.65-44.83-6.6-67.21c-3.64-27.65-3.22-56.07-11.36-82.74C349.41,24.14,258.11,2.64,197.12,16.71Z" transform="translate(-43.89 -12.6)" fill="#68e1fd" opacity="0.18" style="isolation: isolate;"></path><ellipse cx="176.14" cy="194.17" rx="109.39" ry="50.17" fill="url(#linear-gradient)"></ellipse><ellipse cx="177.08" cy="186.28" rx="109.39" ry="50.17" fill="#68e1fd"></ellipse><ellipse cx="177.08" cy="186.28" rx="109.39" ry="50.17" fill="url(#linear-gradient-2)"></ellipse><ellipse cx="177.08" cy="179.95" rx="109.39" ry="50.17" fill="#fff"></ellipse><path d="M155.48,192.44c-.69,2.39-2.8,4-4.56,5.77s-3.35,4.18-2.64,6.56,3.16,3.43,5.42,4.16c5.84,1.89,12.14,2.78,17.29,6.11,3.37,2.17,6,5.25,9.23,7.67,10.52,8,25.26,7.65,38,4.12s24.58-9.85,37.42-12.92c11.58-2.78,24.06-3,34.47-8.73,4.8-2.66,8.91-6.39,12.95-10.1a10.45,10.45,0,0,0,2.62-3.13c1-2.21.42-4.85-.72-7-2.74-5.21-8.22-8.53-13.91-10s-11.66-1.36-17.54-1.23L168.83,176c-4.41.1-15.87-3.15-18.72,1.61S157.26,186.31,155.48,192.44Z" transform="translate(-43.89 -12.6)" fill="url(#linear-gradient-3)"></path><path d="M144.56,173.36c2,2.65,5.31,3.88,8.19,5.54,9,5.17,14.13,14.83,20,23.34a120.18,120.18,0,0,0,20,22.36c1.79,1.55,3.72,3.1,6,3.55a14.51,14.51,0,0,0,5.4-.32c13.59-2.56,27.23-5.12,40.35-9.47,12-4,23.38-9.35,34.76-14.73,5.68-2.68,11.93-6,13.8-12,1.38-4.45-.05-9.22-1.47-13.65-20.56-1.24-39.42-11.22-59.13-17.19-22.22-6.73-45.67-8.36-68.88-8.32-5.08,0-15.27-.49-18.7,4.24C142.07,160.68,141.63,169.48,144.56,173.36Z" transform="translate(-43.89 -12.6)" fill="#68e1fd"></path><path d="M144.56,173.36c2,2.65,5.31,3.88,8.19,5.54,9,5.17,14.13,14.83,20,23.34a120.18,120.18,0,0,0,20,22.36c1.79,1.55,3.72,3.1,6,3.55a14.51,14.51,0,0,0,5.4-.32c13.59-2.56,27.23-5.12,40.35-9.47,12-4,23.38-9.35,34.76-14.73,5.68-2.68,11.93-6,13.8-12,1.38-4.45-.05-9.22-1.47-13.65-20.56-1.24-39.42-11.22-59.13-17.19-22.22-6.73-45.67-8.36-68.88-8.32-5.08,0-15.27-.49-18.7,4.24C142.07,160.68,141.63,169.48,144.56,173.36Z" transform="translate(-43.89 -12.6)" fill="url(#linear-gradient-4)"></path><path d="M150.21,153.17c-2.1,1-4.28,2.28-5.2,4.42-1.28,3,.47,6.49,3,8.47s5.75,2.88,8.71,4.15c8.29,3.54,14.93,10.11,20.38,17.29s9.88,15.07,15.12,22.4c1.64,2.3,3.43,4.61,5.91,6,3.15,1.72,6.93,1.66,10.52,1.56,4.58-.13,9.25-.28,13.58-1.8,3.91-1.37,7.35-3.8,10.84-6,17.54-11.17,37.6-17.78,55.57-28.24,1-.57,2.06-1.29,2.27-2.41a3.92,3.92,0,0,0-1.22-3c-4.32-5.24-9.9-9.27-15.42-13.24l-38.23-27.53a30.55,30.55,0,0,0-7.93-4.58,25.83,25.83,0,0,0-10.18-.76c-12.87,1-25.24,5.13-37.06,10.14C170.74,144.26,160.11,148.38,150.21,153.17Z" transform="translate(-43.89 -12.6)" fill="#68e1fd"></path><path d="M152.31,153.81c-2,1-4.14,2.21-5,4.27-1.24,2.88.46,6.29,2.93,8.21s5.56,2.79,8.44,4c8,3.43,14.46,9.8,19.74,16.76S188,201.66,193,208.77c1.59,2.22,3.32,4.46,5.72,5.78,3.05,1.66,6.72,1.61,10.19,1.51,4.44-.13,9-.27,13.16-1.74,3.79-1.33,7.12-3.68,10.51-5.84,17-10.82,36.42-17.23,53.83-27.36.95-.56,2-1.25,2.2-2.34a3.81,3.81,0,0,0-1.19-2.92c-4.18-5.08-9.59-9-14.93-12.83l-37-26.67a29.55,29.55,0,0,0-7.68-4.44,24.83,24.83,0,0,0-9.87-.73c-12.46,1-24.45,5-35.9,9.82C172.21,145.18,161.91,149.17,152.31,153.81Z" transform="translate(-43.89 -12.6)" fill="url(#linear-gradient-5)"></path><path d="M144.56,154.77c2,2.66,5.31,3.89,8.19,5.55,9,5.17,14.13,14.82,20,23.34a120.18,120.18,0,0,0,20,22.36c1.79,1.55,3.72,3.1,6,3.55a14.72,14.72,0,0,0,5.4-.32c13.59-2.56,27.23-5.13,40.35-9.47,12-4,23.38-9.35,34.76-14.73,5.68-2.69,11.93-6,13.8-12,1.38-4.44-.05-9.21-1.47-13.64-20.56-1.24-39.42-11.22-59.13-17.19-22.22-6.73-45.67-8.36-68.88-8.33-5.08,0-15.27-.48-18.7,4.25C142.07,142.1,141.63,150.89,144.56,154.77Z" transform="translate(-43.89 -12.6)" fill="#68e1fd"></path><path d="M144.56,154.77c2,2.66,5.31,3.89,8.19,5.55,9,5.17,14.13,14.82,20,23.34a120.18,120.18,0,0,0,20,22.36c1.79,1.55,3.72,3.1,6,3.55a14.72,14.72,0,0,0,5.4-.32c13.59-2.56,27.23-5.13,40.35-9.47,12-4,23.38-9.35,34.76-14.73,5.68-2.69,11.93-6,13.8-12,1.38-4.44-.05-9.21-1.47-13.64-20.56-1.24-39.42-11.22-59.13-17.19-22.22-6.73-45.67-8.36-68.88-8.33-5.08,0-15.27-.48-18.7,4.25C142.07,142.1,141.63,150.89,144.56,154.77Z" transform="translate(-43.89 -12.6)" fill="url(#linear-gradient-6)"></path><path d="M150.21,134.59c-2.1,1-4.28,2.28-5.2,4.41-1.28,3,.47,6.49,3,8.47s5.75,2.88,8.71,4.15c8.29,3.55,14.93,10.12,20.38,17.3S187,184,192.24,191.32c1.64,2.3,3.43,4.61,5.91,6,3.15,1.72,6.93,1.67,10.52,1.57,4.58-.13,9.25-.28,13.58-1.8,3.91-1.37,7.35-3.8,10.84-6,17.54-11.17,37.6-17.78,55.57-28.24,1-.58,2.06-1.29,2.27-2.42a3.92,3.92,0,0,0-1.22-3c-4.32-5.24-9.9-9.27-15.42-13.24l-38.23-27.54a30.52,30.52,0,0,0-7.93-4.57,25.65,25.65,0,0,0-10.18-.76c-12.87,1-25.24,5.12-37.06,10.14C170.74,125.68,160.11,129.8,150.21,134.59Z" transform="translate(-43.89 -12.6)" fill="#68e1fd"></path><path d="M152.31,135.22c-2,1-4.14,2.21-5,4.28-1.24,2.87.46,6.29,2.93,8.21s5.56,2.79,8.44,4c8,3.43,14.46,9.8,19.74,16.75s9.57,14.6,14.65,21.7c1.59,2.23,3.32,4.47,5.72,5.78,3.05,1.67,6.72,1.62,10.19,1.52,4.44-.13,9-.27,13.16-1.74,3.79-1.33,7.12-3.69,10.51-5.85,17-10.82,36.42-17.22,53.83-27.35.95-.56,2-1.26,2.2-2.35a3.79,3.79,0,0,0-1.19-2.91c-4.18-5.08-9.59-9-14.93-12.83l-37-26.68a29.8,29.8,0,0,0-7.68-4.43,25,25,0,0,0-9.87-.74c-12.46,1-24.45,5-35.9,9.82C172.21,126.59,161.91,130.58,152.31,135.22Z" transform="translate(-43.89 -12.6)" fill="url(#linear-gradient-7)"></path><path d="M144.35,140.59c2.18,2.51,5.57,3.51,8.56,5,9.29,4.53,15.12,13.81,21.58,21.88A120.06,120.06,0,0,0,196,188.34c1.89,1.42,3.93,2.83,6.28,3.12a14.21,14.21,0,0,0,5.35-.7c13.38-3.49,26.81-7,39.6-12.26,11.65-4.78,22.66-11,33.64-17.12,5.48-3.08,11.48-6.82,12.93-12.93,1.07-4.53-.69-9.19-2.42-13.51-20.59.2-40.11-8.44-60.19-13-22.63-5.16-46.13-5.15-69.29-3.49-5.07.36-15.26.58-18.35,5.54C141,128.12,141.15,136.93,144.35,140.59Z" transform="translate(-43.89 -12.6)" fill="#68e1fd"></path><path d="M144.35,140.59c2.18,2.51,5.57,3.51,8.56,5,9.29,4.53,15.12,13.81,21.58,21.88A120.06,120.06,0,0,0,196,188.34c1.89,1.42,3.93,2.83,6.28,3.12a14.21,14.21,0,0,0,5.35-.7c13.38-3.49,26.81-7,39.6-12.26,11.65-4.78,22.66-11,33.64-17.12,5.48-3.08,11.48-6.82,12.93-12.93,1.07-4.53-.69-9.19-2.42-13.51-20.59.2-40.11-8.44-60.19-13-22.63-5.16-46.13-5.15-69.29-3.49-5.07.36-15.26.58-18.35,5.54C141,128.12,141.15,136.93,144.35,140.59Z" transform="translate(-43.89 -12.6)" fill="url(#linear-gradient-8)"></path><path d="M148.57,120.06c-2,1.16-4.11,2.58-4.88,4.77-1.06,3,.93,6.44,3.61,8.24s5.93,2.47,9,3.53c8.51,3,15.6,9.05,21.53,15.83s10.92,14.34,16.65,21.29c1.8,2.18,3.75,4.35,6.32,5.53,3.26,1.5,7,1.18,10.6.83,4.56-.45,9.21-.92,13.42-2.74,3.81-1.64,7.06-4.31,10.4-6.77,16.71-12.37,36.26-20.37,53.45-32.06,1-.64,2-1.43,2.1-2.57a3.94,3.94,0,0,0-1.43-2.92c-4.68-4.92-10.53-8.55-16.3-12.13L233,96.1a30.13,30.13,0,0,0-8.22-4,25.48,25.48,0,0,0-10.22,0c-12.76,1.93-24.82,6.87-36.25,12.7C168.44,109.74,158.11,114.59,148.57,120.06Z" transform="translate(-43.89 -12.6)" fill="#68e1fd"></path><path d="M150.72,120.55c-2,1.12-4,2.49-4.73,4.62-1,3,.9,6.24,3.5,8s5.74,2.39,8.7,3.42c8.24,2.86,15.11,8.77,20.86,15.34s10.57,13.89,16.13,20.62c1.74,2.11,3.63,4.22,6.12,5.36,3.15,1.46,6.8,1.14,10.26.8,4.42-.43,8.93-.89,13-2.65,3.69-1.59,6.84-4.17,10.07-6.56,16.19-12,35.14-19.73,51.79-31.06.91-.62,1.91-1.39,2-2.49a3.78,3.78,0,0,0-1.38-2.82c-4.54-4.78-10.2-8.29-15.8-11.76l-38.81-24a29.72,29.72,0,0,0-8-3.88,24.81,24.81,0,0,0-9.9,0c-12.36,1.87-24,6.66-35.12,12.3C170,110.55,160,115.25,150.72,120.55Z" transform="translate(-43.89 -12.6)" fill="url(#linear-gradient-9)"></path><path d="M189.06,169.79c.51-2.91.66-5.88,1.45-8.73s2.36-5.63,5-7.06a9.22,9.22,0,0,0,11.39-.5c-2.23-2.81-6.41-3.49-9.82-2.37s-6.14,3.69-8.41,6.46a59.82,59.82,0,0,0-8.77,15.2c-1.88,4.51-5.12,10.69-4.63,15.72.66,6.62,5.42,2.57,7.24-1C185.28,181.84,188,176,189.06,169.79Z" transform="translate(-43.89 -12.6)" fill="url(#linear-gradient-10)"></path><path d="M166.88,187.33c.37,2.17,1.23,4.74,3.39,5.17,1.89.38,3.58-1.18,4.81-2.68A54.18,54.18,0,0,0,186.3,166.3c.7-3.45,1.1-7.07,2.94-10.06s5.71-5.12,8.91-3.66c1.49.67,2.59,2,4,2.88,5.4,3.45,12.33-.88,16.93-5.33a8.36,8.36,0,0,1,3-2.15c2-.67,4.13.28,6,1.31,3.74,2.11,7.28,4.66,11.31,6.17s8.81,1.79,12.42-.54c2.81-1.82,4.69-5.08,7.87-6.15,3.83-1.29,8.1,1.26,10.1,4.77s2.31,7.69,2.56,11.72l1.4,22.56c2.46.56,5-1.24,6.06-3.51s1.11-4.89,1.11-7.41v-12c0-7.48-.05-15.18-2.9-22.1s-9.24-12.92-16.72-13l7.45-3.81c.63-3.94-2.72-7.61-6.51-8.9s-7.9-.84-11.89-.69a79.26,79.26,0,0,1-22.7-2.41c-.11-6.64-2.89-13.39-8.15-17.45s-13-4.93-18.63-1.35c-7.87,5-9.56,16.7-17.68,21.32-9.08,5.16-19.66-1.81-28.72,1.92-13.38,5.5,6.51,11.1,10.31,14.41,5.64,4.93,4.58,12.13,3.47,18.8C166.13,163.74,164.77,175.12,166.88,187.33Z" transform="translate(-43.89 -12.6)" fill="#68e1fd"></path><path d="M166.88,187.33c.37,2.17,1.23,4.74,3.39,5.17,1.89.38,3.58-1.18,4.81-2.68A54.18,54.18,0,0,0,186.3,166.3c.7-3.45,1.1-7.07,2.94-10.06s5.71-5.12,8.91-3.66c1.49.67,2.59,2,4,2.88,5.4,3.45,12.33-.88,16.93-5.33a8.36,8.36,0,0,1,3-2.15c2-.67,4.13.28,6,1.31,3.74,2.11,7.28,4.66,11.31,6.17s8.81,1.79,12.42-.54c2.81-1.82,4.69-5.08,7.87-6.15,3.83-1.29,8.1,1.26,10.1,4.77s2.31,7.69,2.56,11.72l1.4,22.56c2.46.56,5-1.24,6.06-3.51s1.11-4.89,1.11-7.41v-12c0-7.48-.05-15.18-2.9-22.1s-9.24-12.92-16.72-13l7.45-3.81c.63-3.94-2.72-7.61-6.51-8.9s-7.9-.84-11.89-.69a79.26,79.26,0,0,1-22.7-2.41c-.11-6.64-2.89-13.39-8.15-17.45s-13-4.93-18.63-1.35c-7.87,5-9.56,16.7-17.68,21.32-9.08,5.16-19.66-1.81-28.72,1.92-13.38,5.5,6.51,11.1,10.31,14.41,5.64,4.93,4.58,12.13,3.47,18.8C166.13,163.74,164.77,175.12,166.88,187.33Z" transform="translate(-43.89 -12.6)" fill="#68e1fd"></path><path d="M187.06,116.25a11.87,11.87,0,0,0-3,2.53,4,4,0,0,0-.76,3.69,5.1,5.1,0,0,0,2,2.26,17.94,17.94,0,0,0,11.35,3.21c.7,1.41.17,3.2.87,4.61a5.66,5.66,0,0,0,2.71,2.24,33,33,0,0,0,10.19,3.54,15.58,15.58,0,0,0,10.44-1.92c1.82-1.16,3.31-2.78,5.07-4,1.25-.89,2.73-1.7,3.23-3.15.79-2.29-1.38-4.56-3.61-5.52-3.36-1.46-7.22-1.46-10.58-2.92-2.47-1.06-4.55-2.85-6.94-4.06-4.93-2.48-10.76-2.31-16.23-1.58" transform="translate(-43.89 -12.6)" fill="url(#linear-gradient-11)"></path><path d="M153.39,121a2.74,2.74,0,0,0,.54,3,8.06,8.06,0,0,0,2.74,1.76l7.37,3.42a9.09,9.09,0,0,1,2.77,1.72,8.09,8.09,0,0,1,1.77,4.71c1.14,9-.86,18-2.21,27s-2,18.46,1.74,26.74c.35.78,1,1.68,1.81,1.55a2.07,2.07,0,0,0,.93-.5,27.75,27.75,0,0,0,6.47-7.64c-3.37-3.07-3.77-8.15-3.73-12.71a148.84,148.84,0,0,1,2.86-27.77c.75-3.79,1.62-7.89,0-11.41-.67-1.44-1.6-2.67-1.91-4.26-.35-1.79-.07-3.21-1.12-4.83a5.78,5.78,0,0,0-4.79-2.91c-2.17-.08-4.36.63-6.53.74S154.76,118.61,153.39,121Z" transform="translate(-43.89 -12.6)" fill="url(#linear-gradient-12)"></path><path d="M208.58,114.42a11.16,11.16,0,0,1-11.16,11.16,11,11,0,0,1-3.1-.44,11.16,11.16,0,1,1,12.93-16A11.06,11.06,0,0,1,208.58,114.42Z" transform="translate(-43.89 -12.6)" fill="#68e1fd"></path><path d="M208.58,114.42a11.16,11.16,0,0,1-11.16,11.16,11,11,0,0,1-3.1-.44,11.16,11.16,0,0,1,12.93-16A11.06,11.06,0,0,1,208.58,114.42Z" transform="translate(-43.89 -12.6)" fill="url(#linear-gradient-13)"></path><path d="M224.35,124.79A11.16,11.16,0,0,1,213.19,136a11,11,0,0,1-3.1-.44,11.16,11.16,0,1,1,12.93-16A11.06,11.06,0,0,1,224.35,124.79Z" transform="translate(-43.89 -12.6)" fill="#68e1fd"></path><path d="M224.35,124.79A11.16,11.16,0,0,1,213.19,136a11,11,0,0,1-3.1-.44,11.16,11.16,0,0,1,12.93-16A11.06,11.06,0,0,1,224.35,124.79Z" transform="translate(-43.89 -12.6)" fill="url(#linear-gradient-14)"></path><path d="M201.46,105.21a60.5,60.5,0,0,1,39-28.29c-8.39,7.44-17,15.1-22.19,25a78.3,78.3,0,0,0-3.8,8.71c-.81,2.16-1.61,4.47-1.13,6.72" transform="translate(-43.89 -12.6)" fill="none" stroke-miterlimit="10" stroke="url(#linear-gradient-15)"></path><path d="M229.38,74.84q11.07,2.23,22.2,4.16" transform="translate(-43.89 -12.6)" fill="none" stroke-miterlimit="10" stroke="url(#linear-gradient-16)"></path><circle cx="113.17" cy="192.43" r="17.3" fill="#68e1fd"></circle><path d="M169.46,203.64a9.32,9.32,0,0,1-5.55,5.31,7.12,7.12,0,0,0-2.45.93c-1.15.91-1.24,2.6-2,3.84-1,1.63-3.08,2.29-5,2.33-1.1,0-2.35-.06-3.11.73a2.34,2.34,0,0,0,.18,3.09,5.1,5.1,0,0,0,3.05,1.38,15.52,15.52,0,0,0,11.68-3.17A21.28,21.28,0,0,0,173.19,208a16.22,16.22,0,0,0,1-6.57c-.11-1.34-.52-4.92-2.59-4C169.93,198.21,170.13,202.1,169.46,203.64Z" transform="translate(-43.89 -12.6)" fill="url(#linear-gradient-17)"></path><circle cx="223.73" cy="194.17" r="17.3" fill="#68e1fd"></circle><path d="M280,205.38a9.37,9.37,0,0,1-5.55,5.31,7.12,7.12,0,0,0-2.45.93c-1.15.91-1.25,2.6-2,3.84-1,1.63-3.08,2.29-5,2.33-1.1,0-2.35-.06-3.11.73a2.34,2.34,0,0,0,.18,3.09,5.1,5.1,0,0,0,3.05,1.38,15.52,15.52,0,0,0,11.68-3.17,21.28,21.28,0,0,0,6.95-10.11,16.22,16.22,0,0,0,1-6.57c-.11-1.34-.52-4.92-2.6-3.95C280.49,200,280.69,203.84,280,205.38Z" transform="translate(-43.89 -12.6)" fill="url(#linear-gradient-18)"></path><path d="M247.68,154.45c4.5-.54,8.64-2.67,12.55-5,2.18-1.28,4.91-2.64,7.07-1.33,1.8,1.08,2.21,3.45,2.41,5.54a145.34,145.34,0,0,1,.6,15.89c-.09,5-.38,10.3,2,14.74a3.24,3.24,0,0,0,2.11,1.92c1.82.27,2.79-2.07,3-3.89.9-7.14.41-14.37-.08-21.55-.28-4.14-.6-8.42-2.58-12.07a14.86,14.86,0,0,0-13.31-7.58c-4.9.19-9.36,2.82-14.16,3.85a22.11,22.11,0,0,1-10.63-.38c-2-.56-7.33-3.58-9.25-2.11-1.65,1.28-.17,4,.8,5.32C232.07,152.88,241.68,155.17,247.68,154.45Z" transform="translate(-43.89 -12.6)" fill="#68e1fd"></path><path d="M247.68,154.45c4.5-.54,8.64-2.67,12.55-5,2.18-1.28,4.91-2.64,7.07-1.33,1.8,1.08,2.21,3.45,2.41,5.54a145.34,145.34,0,0,1,.6,15.89c-.09,5-.38,10.3,2,14.74a3.24,3.24,0,0,0,2.11,1.92c1.82.27,2.79-2.07,3-3.89.9-7.14.41-14.37-.08-21.55-.28-4.14-.6-8.42-2.58-12.07a14.86,14.86,0,0,0-13.31-7.58c-4.9.19-9.36,2.82-14.16,3.85a22.11,22.11,0,0,1-10.63-.38c-2-.56-7.33-3.58-9.25-2.11-1.65,1.28-.17,4,.8,5.32C232.07,152.88,241.68,155.17,247.68,154.45Z" transform="translate(-43.89 -12.6)" fill="url(#linear-gradient-19)"></path><path d="M209.75,151.6a10.31,10.31,0,0,1-3.61,2c-3.7.87-7-2.55-10.67-3.4a8.32,8.32,0,0,0-8.52,3.36,15.47,15.47,0,0,1,3.84-7,9.06,9.06,0,0,1,7.3-2.69c1.69.22,3.26,1,4.94,1.31,3.3.55,6.57-.92,9.59-2.35l6.47-3.07A5.76,5.76,0,0,1,223,139c5.11,1.39-.36,4.46-2.05,5.24C217,146,213.22,149,209.75,151.6Z" transform="translate(-43.89 -12.6)" fill="url(#linear-gradient-20)"></path></svg>